<?xml version="1.0" encoding="utf-8"?>
<!-- Generator: Adobe Illustrator 15.0.2, SVG Export Plug-In . SVG Version: 6.00 Build 0)  -->
<!DOCTYPE svg PUBLIC "-//W3C//DTD SVG 1.1//EN" "http://www.w3.org/Graphics/SVG/1.1/DTD/svg11.dtd">
<svg version="1.1" id="Layer_1" xmlns="http://www.w3.org/2000/svg" xmlns:xlink="http://www.w3.org/1999/xlink" x="0px" y="0px"
	 width="39.52px" height="38.359px" viewBox="0 0 39.52 38.359" enable-background="new 0 0 39.52 38.359" xml:space="preserve">
<g>
	<g>
		<path d="M7.386,38.007H5.345c-0.063,0-0.09-0.026-0.09-0.091v-5.533c0-0.062,0.027-0.091,0.09-0.091h2.042
			c1.034,0,1.688,0.663,1.688,1.688v0.091c0,0.336-0.218,0.727-0.481,0.979c-0.027,0.019-0.037,0.046-0.037,0.063
			s0.009,0.045,0.037,0.064c0.263,0.254,0.481,0.688,0.481,1.023v0.137C9.074,37.363,8.42,38.007,7.386,38.007z M8.039,33.898
			c0-0.354-0.299-0.654-0.653-0.654H6.389c-0.064,0-0.091,0.028-0.091,0.092v1.206c0,0.063,0.027,0.091,0.091,0.091h0.998
			c0.354,0,0.653-0.299,0.653-0.653V33.898z M8.039,36.229c0-0.363-0.291-0.644-0.653-0.644H6.389c-0.064,0-0.091,0.027-0.091,0.091
			v1.288c0,0.063,0.027,0.091,0.091,0.091h0.998c0.354,0,0.653-0.281,0.653-0.652V36.229z"/>
		<path d="M11.134,38.007h-0.862c-0.063,0-0.091-0.026-0.091-0.091v-5.533c0-0.062,0.027-0.091,0.091-0.091h0.862
			c0.063,0,0.091,0.028,0.091,0.091v5.533C11.225,37.98,11.198,38.007,11.134,38.007z"/>
		<path d="M15.797,33.244h-2.158c-0.063,0-0.09,0.028-0.09,0.092v1.206c0,0.063,0.027,0.091,0.09,0.091h1.769
			c0.063,0,0.091,0.027,0.091,0.09v0.771c0,0.063-0.027,0.091-0.091,0.091h-1.769c-0.063,0-0.09,0.027-0.09,0.091v2.24
			c0,0.064-0.027,0.091-0.091,0.091h-0.861c-0.064,0-0.091-0.026-0.091-0.091v-5.533c0-0.062,0.027-0.091,0.091-0.091h3.201
			c0.063,0,0.09,0.028,0.09,0.091v0.771C15.888,33.218,15.861,33.244,15.797,33.244z"/>
	</g>
	<path d="M4.115,35.039h-1.89c-0.063,0-0.09,0.028-0.09,0.092v0.768c0,0.064,0.027,0.09,0.09,0.09h0.85
		c0.054,0,0.09,0.027,0.09,0.092v0.424c0,0.371-0.28,0.65-0.642,0.65H2.081c-0.361,0-0.651-0.289-0.651-0.65v-2.676
		c0-0.361,0.29-0.65,0.651-0.65c0,0-0.05-0.002,0.186-0.002c0.669,0,1.32,0.043,1.471,0.061c0.067,0.007,0.113-0.023,0.113-0.102
		v-0.691c0-0.054-0.025-0.128-0.113-0.143c-0.233-0.04-1.009-0.072-1.445-0.072c-0.309,0-0.212,0-0.212,0
		c-1.012,0-1.681,0.643-1.681,1.6v2.676c0,0.957,0.66,1.6,1.681,1.6h0.443c1.013,0,1.682-0.643,1.682-1.6v-1.373
		C4.205,35.067,4.178,35.039,4.115,35.039z"/>
	<g>
		<path fill="#96CD7E" d="M19.562,16.875c0-4.99,2.436-9.31,9.683-9.31C29.245,12.566,25.956,16.875,19.562,16.875z"/>
		<path fill="#3EB549" d="M34.311,38.359c2.036,0,3.602-0.289,5.208-0.881c0-5.925-3.535-10.158-9.777-13.209
			c-4.777-2.395-10.658-3.634-16.021-3.634C16.075,13.574,14.361,4.811,12.08,0c-2.527,5.039-4.103,13.68-1.678,20.709
			c-4.764,0.348-8.542,2.42-10.139,5.155c-0.122,0.208-0.363,0.653-0.218,0.729c0.113,0.061,0.298-0.125,0.412-0.229
			c1.721-1.593,4-2.369,6.189-2.369c5.057,0,8.627,4.196,11.149,6.719C23.216,36.135,28.516,38.371,34.311,38.359z"/>
	</g>
</g>
</svg>
